<?xml version="1.0" encoding="UTF-8" standalone="no"?>
<svg
   xmlns:dc="http://purl.org/dc/elements/1.1/"
   xmlns:cc="http://creativecommons.org/ns#"
   xmlns:rdf="http://www.w3.org/1999/02/22-rdf-syntax-ns#"
   xmlns:svg="http://www.w3.org/2000/svg"
   xmlns="http://www.w3.org/2000/svg"
   xmlns:sodipodi="http://sodipodi.sourceforge.net/DTD/sodipodi-0.dtd"
   xmlns:inkscape="http://www.inkscape.org/namespaces/inkscape"
   enable-background="new 0 0 256 256"
   height="30px"
   id="Layer_1"
   version="1.1"
   viewBox="0 0 256 256"
   width="30px"
   xml:space="preserve"
   inkscape:version="0.91 r13725"
   sodipodi:docname="cancel_circle.svg"><metadata
     id="metadata9"><rdf:RDF><cc:Work
         rdf:about=""><dc:format>image/svg+xml</dc:format><dc:type
           rdf:resource="http://purl.org/dc/dcmitype/StillImage" /></cc:Work></rdf:RDF></metadata><defs
     id="defs7" /><sodipodi:namedview
     pagecolor="#ffffff"
     bordercolor="#666666"
     borderopacity="1"
     objecttolerance="10"
     gridtolerance="10"
     guidetolerance="10"
     inkscape:pageopacity="0"
     inkscape:pageshadow="2"
     inkscape:window-width="686"
     inkscape:window-height="480"
     id="namedview5"
     showgrid="false"
     inkscape:zoom="0.921875"
     inkscape:cx="128"
     inkscape:cy="128"
     inkscape:window-x="0"
     inkscape:window-y="0"
     inkscape:window-maximized="0"
     inkscape:current-layer="Layer_1" /><path
     d="m 181.02151,174.141 c 2.5,2.498 2.5,6.552 0,9.05 -1.249,1.25 -2.889,1.875 -4.525,1.875 -1.638,0 -3.277,-0.625 -4.525,-1.875 l -46.142,-46.142 -46.143002,46.141 c -1.249,1.25 -2.888,1.875 -4.525,1.875 -1.638,0 -3.277,-0.625 -4.525,-1.875 -2.5,-2.498 -2.5,-6.552 0,-9.05 L 116.77951,127.997 70.636508,81.856 c -2.5,-2.499 -2.5,-6.552 0,-9.05 2.497,-2.5 6.553,-2.5 9.05,0 l 46.142002,46.142 46.142,-46.142 c 2.497,-2.5 6.553,-2.5 9.051,0 2.5,2.499 2.5,6.552 0,9.05 l -46.143,46.142 46.143,46.143 z M 253.83051,128 c 0,-70.58 -57.42,-128 -128,-128 C 55.250508,0 -2.1694915,57.42 -2.1694915,128 c 0,70.58 57.4199995,128 128.0000015,128 70.58,0 128,-57.42 128,-128 z m -12.8,0 c 0,63.521 -51.679,115.2 -115.2,115.2 -63.522002,0 -115.200002,-51.679 -115.200002,-115.2 0,-63.522 51.678,-115.2 115.200002,-115.2 63.521,0 115.2,51.678 115.2,115.2 z"
     id="path3"
     style="fill:#ffffff"
     inkscape:connector-curvature="0" /></svg>
